<?xml version="1.0" encoding="UTF-8" standalone="no"?>
<!DOCTYPE svg PUBLIC "-//W3C//DTD SVG 1.1//EN" "http://www.w3.org/Graphics/SVG/1.1/DTD/svg11.dtd">
<svg version="1.1" xmlns="http://www.w3.org/2000/svg" xmlns:xlink="http://www.w3.org/1999/xlink" preserveAspectRatio="xMidYMid meet" viewBox="0 0 640 640" width="600" height="600"><defs><path d="M153.9 158.1L166.08 176.29L178.25 158.1L170.53 158.1L170.53 138.8L161.6 138.8L161.6 158.1L153.9 158.1Z" id="a2f5Y1ASoV"></path><path d="M188.76 121.51C188.76 132.42 178.98 141.28 166.93 141.28C154.89 141.28 145.11 132.42 145.11 121.51C145.11 110.6 154.89 101.74 166.93 101.74C178.98 101.74 188.76 110.6 188.76 121.51Z" id="c1VUYiRFoM"></path></defs><g><g><g><g><g><filter id="shadow2322401" x="144.9" y="129.8" width="43.35" height="56.49" filterUnits="userSpaceOnUse" primitiveUnits="userSpaceOnUse"><feFlood></feFlood><feComposite in2="SourceAlpha" operator="in"></feComposite><feGaussianBlur stdDeviation="1"></feGaussianBlur><feOffset dx="1" dy="1" result="afterOffset"></feOffset><feFlood flood-color="#254bd8" flood-opacity="0.5"></feFlood><feComposite in2="afterOffset" operator="in"></feComposite><feMorphology operator="dilate" radius="1"></feMorphology><feComposite in2="SourceAlpha" operator="out"></feComposite></filter><path d="M153.9 158.1L166.08 176.29L178.25 158.1L170.53 158.1L170.53 138.8L161.6 138.8L161.6 158.1L153.9 158.1Z" id="e6mua527o" fill="white" fill-opacity="1" filter="url(#shadow2322401)"></path></g><use xlink:href="#a2f5Y1ASoV" opacity="1" fill="#6c5e5e" fill-opacity="1"></use></g><g><use xlink:href="#c1VUYiRFoM" opacity="1" fill="#8cbe6e" fill-opacity="1"></use></g></g></g></g></svg>